<?xml version="1.0" encoding="UTF-8" standalone="no"?>
<!DOCTYPE svg PUBLIC "-//W3C//DTD SVG 1.1//EN" "http://www.w3.org/Graphics/SVG/1.1/DTD/svg11.dtd">
<svg width="100%" height="100%" viewBox="0 0 164 129" version="1.1" xmlns="http://www.w3.org/2000/svg" xmlns:xlink="http://www.w3.org/1999/xlink" xml:space="preserve" xmlns:serif="http://www.serif.com/" style="fill-rule:evenodd;clip-rule:evenodd;stroke-linecap:round;stroke-linejoin:round;stroke-miterlimit:1.5;">
    <g transform="matrix(1,0,0,1,-583.965,-69.0445)">
        <path d="M729.508,197.495C729.508,197.495 738.594,198.49 694.03,190.044C649.467,181.598 591.552,182.687 613.053,175.166C634.555,167.646 609.729,158.051 600,152.061C590.271,146.071 570.538,145.521 600,132.18C629.462,118.839 588.01,124.803 585.327,119.32C582.645,113.836 653.54,82.096 658.152,69.544" style="fill:none;stroke:black;stroke-width:1px;"/>
    </g>
    <g transform="matrix(1,0,0,1,-562.196,-69.0445)">
        <path d="M721.697,195.309C721.697,195.309 738.594,198.49 694.03,190.044C649.467,181.598 591.552,182.687 613.053,175.166C634.555,167.646 600.178,157.668 590.449,151.678C580.721,145.688 570.538,145.521 600,132.18C629.462,118.839 598.761,116.556 596.078,111.073C593.396,105.59 653.54,82.096 658.152,69.544" style="fill:none;stroke:black;stroke-width:1px;"/>
    </g>
</svg>
