<?xml version="1.0" encoding="UTF-8" standalone="no"?>
<!DOCTYPE svg PUBLIC "-//W3C//DTD SVG 1.1//EN" "http://www.w3.org/Graphics/SVG/1.1/DTD/svg11.dtd">
<svg width="100%" height="100%" viewBox="0 0 169 139" version="1.1" xmlns="http://www.w3.org/2000/svg" xmlns:xlink="http://www.w3.org/1999/xlink" xml:space="preserve" xmlns:serif="http://www.serif.com/" style="fill-rule:evenodd;clip-rule:evenodd;stroke-linejoin:round;stroke-miterlimit:2;">
    <g transform="matrix(-0.050818,0.415988,-0.527878,-0.0644867,260.654,-145.106)">
        <ellipse cx="438.827" cy="224.694" rx="53.867" ry="21.523" style="fill:rgb(102,136,42);"/>
    </g>
    <g transform="matrix(0.413996,0.0650886,-0.0825957,0.525349,-140.241,-52.4333)">
        <ellipse cx="438.827" cy="224.694" rx="53.867" ry="21.523" style="fill:rgb(102,136,42);"/>
    </g>
    <g transform="matrix(-0.407849,0.0963755,-0.122298,-0.517549,352.574,129.442)">
        <ellipse cx="438.827" cy="224.694" rx="53.867" ry="21.523" style="fill:rgb(102,136,42);"/>
    </g>
    <g transform="matrix(-0.362209,0.210793,-0.26749,-0.459633,363.378,61.4344)">
        <ellipse cx="438.827" cy="224.694" rx="53.867" ry="21.523" style="fill:rgb(155,182,115);"/>
    </g>
    <g transform="matrix(-0.257281,0.33081,-0.419789,-0.326482,335.074,-45.3818)">
        <ellipse cx="438.827" cy="224.694" rx="53.867" ry="21.523" style="fill:rgb(155,182,115);"/>
    </g>
    <g transform="matrix(0.398131,-0.130845,0.166039,0.505218,-185.971,50.0195)">
        <ellipse cx="438.827" cy="224.694" rx="53.867" ry="21.523" style="fill:rgb(155,182,115);"/>
    </g>
    <g transform="matrix(0.248991,0.337094,-0.427763,0.315963,75.0102,-177.123)">
        <ellipse cx="438.827" cy="224.694" rx="53.867" ry="21.523" style="fill:rgb(155,182,115);"/>
    </g>
    <g transform="matrix(0.351654,0.227966,-0.289283,0.446239,-5.2303,-154.177)">
        <ellipse cx="438.827" cy="224.694" rx="53.867" ry="21.523" style="fill:rgb(102,136,42);"/>
    </g>
    <path d="M82.688,102.862C83.231,96.628 86.216,90.557 92.291,84.456C96.396,80.333 104.262,74.135 107.288,66.528C110.316,58.915 114.49,51.389 116.27,56.278C117.278,59.045 116.723,70.551 103.678,86.665C108.522,84.916 115.165,83.794 121.889,86.663C134.874,92.203 135.213,86.028 138.667,83.435C139.851,82.546 140.815,81.661 141.892,82.331C142.962,82.998 142.501,84.388 138.005,89.846C128.943,100.848 119.391,90.631 111.306,92.44C106.149,93.593 99.304,94.577 97.222,106.565C99.73,117.81 110.666,126.403 110.666,126.403C110.666,126.403 111.745,127.152 111.858,128.201C112.354,132.815 104.356,146.271 93.589,131.392C91.235,128.138 89.196,124.977 87.535,121.889C86.493,120.582 85.273,118.689 83.849,116.007C79.961,108.691 59.932,113.158 54.586,99.944C50.112,88.888 54.708,87.77 56.544,90.101C59.217,93.494 56.992,100.735 71.097,100.147C75.543,99.962 79.438,101.149 82.688,102.862Z" style="fill:rgb(117,94,63);"/>
</svg>
