<?xml version="1.0" encoding="UTF-8" standalone="no"?>
<!DOCTYPE svg PUBLIC "-//W3C//DTD SVG 1.1//EN" "http://www.w3.org/Graphics/SVG/1.1/DTD/svg11.dtd">
<svg width="100%" height="100%" viewBox="0 0 115 127" version="1.1" xmlns="http://www.w3.org/2000/svg" xmlns:xlink="http://www.w3.org/1999/xlink" xml:space="preserve" xmlns:serif="http://www.serif.com/" style="fill-rule:evenodd;clip-rule:evenodd;stroke-linejoin:round;stroke-miterlimit:2;">
    <g transform="matrix(-0.050818,0.415988,-0.527878,-0.0644867,205.754,-145.106)">
        <ellipse cx="438.827" cy="224.694" rx="53.867" ry="21.523" style="fill:rgb(102,136,42);"/>
    </g>
    <g transform="matrix(-0.417779,0.0330081,-0.0418864,-0.53015,283.985,159.911)">
        <ellipse cx="438.827" cy="224.694" rx="53.867" ry="21.523" style="fill:rgb(102,136,42);"/>
    </g>
    <g transform="matrix(-0.390134,0.15305,-0.194216,-0.49507,305.04,94.3483)">
        <ellipse cx="438.827" cy="224.694" rx="53.867" ry="21.523" style="fill:rgb(155,182,115);"/>
    </g>
    <g transform="matrix(-0.257281,0.33081,-0.419789,-0.326482,280.174,-45.3818)">
        <ellipse cx="438.827" cy="224.694" rx="53.867" ry="21.523" style="fill:rgb(155,182,115);"/>
    </g>
    <g transform="matrix(0.2871,0.305291,-0.387406,0.364322,-4.90636,-176.032)">
        <ellipse cx="438.827" cy="224.694" rx="53.867" ry="21.523" style="fill:rgb(155,182,115);"/>
    </g>
    <g transform="matrix(0.37614,0.184791,-0.234495,0.477311,-81.8712,-143.76)">
        <ellipse cx="438.827" cy="224.694" rx="53.867" ry="21.523" style="fill:rgb(102,136,42);"/>
    </g>
    <g transform="matrix(0.745409,-0.666607,0.666607,0.745409,-417.073,136.069)">
        <path d="M366.849,299.923C366.849,299.923 359.208,272.85 383.27,268.723C389.094,267.724 395.493,267.536 399.669,266.035C408.721,262.783 413.291,257.316 413.02,255.642C412.8,254.278 412.707,254.381 411.796,254.053C410.221,253.486 407.304,256.778 403.638,258.606C396.312,262.258 385.917,260.592 380.109,260.928C359.141,262.144 353.001,270.962 350.794,292.258C348.901,310.527 363.832,305.827 366.538,302.058C367.154,301.201 366.849,299.923 366.849,299.923Z" style="fill:rgb(92,74,50);"/>
    </g>
    <g transform="matrix(1,0,0,1,-350.226,-195.419)">
        <path d="M391.156,282.534C391.156,282.534 403.576,270.589 418.995,276.298C432.234,281.199 433.349,274.175 436.803,271.582C437.987,270.693 438.951,269.807 440.028,270.478C441.098,271.145 440.637,272.535 436.141,277.993C427.079,288.995 417.527,278.778 409.442,280.587C403.756,281.858 396.018,282.924 394.875,298.759C394.722,300.881 390.562,290.048 390.562,290.048L391.156,282.534Z" style="fill:rgb(92,74,50);"/>
    </g>
    <g transform="matrix(-0.93532,-0.353803,-0.353803,0.93532,509.093,-15.5543)">
        <path d="M394.354,278.612C394.354,278.612 395.185,278.768 397.424,277.744C401.986,275.658 409.858,273.027 419.092,276.294C432.401,281.002 434.98,270.737 439.159,269.646C440.537,269.286 441.068,269.643 441.362,270.912C441.757,272.618 439.809,275.843 435.54,280.462C425.864,290.93 408.711,279.665 402.486,285.133C390.221,295.905 391.554,287.481 391.554,287.481L394.354,278.612Z" style="fill:rgb(92,74,50);"/>
    </g>
</svg>
