<?xml version="1.0" encoding="UTF-8" standalone="no"?>
<!DOCTYPE svg PUBLIC "-//W3C//DTD SVG 1.1//EN" "http://www.w3.org/Graphics/SVG/1.1/DTD/svg11.dtd">
<svg width="100%" height="100%" viewBox="0 0 103 116" version="1.1" xmlns="http://www.w3.org/2000/svg" xmlns:xlink="http://www.w3.org/1999/xlink" xml:space="preserve" xmlns:serif="http://www.serif.com/" style="fill-rule:evenodd;clip-rule:evenodd;stroke-linejoin:round;stroke-miterlimit:2;">
    <g transform="matrix(-0.0392642,0.32141,-0.407861,-0.0498252,168.242,-112.001)">
        <ellipse cx="438.827" cy="224.694" rx="53.867" ry="21.523" style="fill:rgb(102,136,42);"/>
    </g>
    <g transform="matrix(-0.352041,0.0278143,-0.0352955,-0.446731,245.721,134.598)">
        <ellipse cx="438.827" cy="224.694" rx="53.867" ry="21.523" style="fill:rgb(102,136,42);"/>
    </g>
    <g transform="matrix(-0.328746,0.128968,-0.163656,-0.41717,263.464,79.3518)">
        <ellipse cx="438.827" cy="224.694" rx="53.867" ry="21.523" style="fill:rgb(155,182,115);"/>
    </g>
    <g transform="matrix(-0.198786,0.255598,-0.324347,-0.252254,225.742,-34.9502)">
        <ellipse cx="438.827" cy="224.694" rx="53.867" ry="21.523" style="fill:rgb(155,182,115);"/>
    </g>
    <g transform="matrix(0.268753,0.285782,-0.36265,0.341041,-4.59283,-171.179)">
        <ellipse cx="438.827" cy="224.694" rx="53.867" ry="21.523" style="fill:rgb(155,182,115);"/>
    </g>
    <g transform="matrix(0.352103,0.172983,-0.21951,0.44681,-76.6394,-140.969)">
        <ellipse cx="438.827" cy="224.694" rx="53.867" ry="21.523" style="fill:rgb(102,136,42);"/>
    </g>
    <path d="M28.17,84.493C27.99,78.427 30.764,72.755 37.632,65.857C41.474,61.997 49.767,56.674 52.6,49.554C54.017,45.991 53.999,41.874 55.452,41.286C56.292,40.946 56.293,40.817 57.298,41.631C58.532,42.63 58.754,49.296 54.467,57.215C52.489,60.868 48.142,64.992 44.701,69.324C44.045,70.149 43.467,70.966 42.962,71.774C47.66,69.001 55.485,66.024 64.375,69.315C76.768,73.904 77.811,67.328 81.045,64.901C82.153,64.069 83.056,63.24 84.063,63.868C85.065,64.492 84.634,65.793 80.425,70.902C71.942,81.201 63,71.637 55.432,73.33C51.14,74.29 45.6,75.125 43.053,83.183C42.533,84.829 41.538,87.376 42.378,90.117C45.098,95.037 49.431,98.605 51.549,100.201C52.333,100.792 52.594,101.384 52.594,101.384C52.594,101.384 53.31,102.51 53.415,103.492C53.879,107.811 48.582,126.232 36.726,106.011C36.529,105.674 36.334,105.34 36.143,105.011C36.047,104.896 35.95,104.741 35.853,104.541C35.812,104.458 35.77,104.375 35.729,104.294C35.505,103.905 35.286,103.521 35.071,103.143C33.593,100.794 31.716,99.13 29.729,95.392C26.09,88.543 7.341,92.724 2.336,80.355C0.128,74.897 -0.51,71.428 0.402,70.065C1.08,69.051 1.662,68.915 2.749,69.686C6.047,72.026 4.905,81.867 18.117,82.153C22.03,82.237 25.369,83.18 28.17,84.493Z" style="fill:rgb(72,58,39);"/>
</svg>
