<?xml version="1.0" encoding="UTF-8" standalone="no"?>
<!DOCTYPE svg PUBLIC "-//W3C//DTD SVG 1.1//EN" "http://www.w3.org/Graphics/SVG/1.1/DTD/svg11.dtd">
<svg width="100%" height="100%" viewBox="0 0 518 119" version="1.1" xmlns="http://www.w3.org/2000/svg" xmlns:xlink="http://www.w3.org/1999/xlink" xml:space="preserve" xmlns:serif="http://www.serif.com/" style="fill-rule:evenodd;clip-rule:evenodd;stroke-linejoin:round;stroke-miterlimit:2;">
    <g transform="matrix(5.38905,0,0,5.38905,-2332.02,-1692.92)">
        <path d="M459.038,331.691C458.326,331.691 457.714,331.573 457.202,331.337C456.69,331.101 456.29,330.737 456.002,330.245C455.714,329.753 455.558,329.139 455.534,328.403C455.526,328.059 455.522,327.719 455.522,327.383C455.522,327.047 455.526,326.703 455.534,326.351C455.558,325.623 455.718,325.015 456.014,324.527C456.31,324.039 456.716,323.671 457.232,323.423C457.748,323.175 458.35,323.051 459.038,323.051C459.726,323.051 460.33,323.175 460.85,323.423C461.37,323.671 461.778,324.039 462.074,324.527C462.37,325.015 462.53,325.623 462.554,326.351C462.57,326.703 462.578,327.047 462.578,327.383C462.578,327.719 462.57,328.059 462.554,328.403C462.53,329.139 462.374,329.753 462.086,330.245C461.798,330.737 461.396,331.101 460.88,331.337C460.364,331.573 459.75,331.691 459.038,331.691ZM459.038,330.311C459.558,330.311 459.982,330.157 460.31,329.849C460.638,329.541 460.814,329.039 460.838,328.343C460.854,327.991 460.862,327.665 460.862,327.365C460.862,327.065 460.854,326.743 460.838,326.399C460.822,325.935 460.736,325.557 460.58,325.265C460.424,324.973 460.214,324.761 459.95,324.629C459.686,324.497 459.382,324.431 459.038,324.431C458.702,324.431 458.402,324.497 458.138,324.629C457.874,324.761 457.664,324.973 457.508,325.265C457.352,325.557 457.266,325.935 457.25,326.399C457.242,326.743 457.238,327.065 457.238,327.365C457.238,327.665 457.242,327.991 457.25,328.343C457.274,329.039 457.45,329.541 457.778,329.849C458.106,330.157 458.526,330.311 459.038,330.311Z" style="fill:rgb(92,74,50);fill-rule:nonzero;"/>
        <path d="M464.306,331.571C464.226,331.571 464.158,331.543 464.102,331.487C464.046,331.431 464.018,331.363 464.018,331.283L464.018,323.339C464.018,323.259 464.046,323.191 464.102,323.135C464.158,323.079 464.226,323.051 464.306,323.051L465.302,323.051C465.382,323.051 465.45,323.079 465.506,323.135C465.562,323.191 465.59,323.259 465.59,323.339L465.59,331.283C465.59,331.363 465.562,331.431 465.506,331.487C465.45,331.543 465.382,331.571 465.302,331.571L464.306,331.571Z" style="fill:rgb(92,74,50);fill-rule:nonzero;"/>
        <path d="M467.474,331.571C467.394,331.571 467.326,331.543 467.27,331.487C467.214,331.431 467.186,331.363 467.186,331.283L467.186,325.619C467.186,325.539 467.214,325.471 467.27,325.415C467.326,325.359 467.394,325.331 467.474,325.331L468.47,325.331C468.558,325.331 468.628,325.359 468.68,325.415C468.732,325.471 468.758,325.539 468.758,325.619L468.758,331.283C468.758,331.363 468.732,331.431 468.68,331.487C468.628,331.543 468.558,331.571 468.47,331.571L467.474,331.571Z" style="fill:rgb(92,74,50);fill-rule:nonzero;"/>
        <path d="M472.562,331.571C472.434,331.571 472.34,331.541 472.28,331.481C472.22,331.421 472.17,331.351 472.13,331.271L469.886,325.703C469.87,325.663 469.862,325.627 469.862,325.595C469.862,325.523 469.888,325.461 469.94,325.409C469.992,325.357 470.054,325.331 470.126,325.331L471.098,325.331C471.194,325.331 471.266,325.357 471.314,325.409C471.362,325.461 471.394,325.511 471.41,325.559L473.006,329.771L474.602,325.559C474.618,325.511 474.65,325.461 474.698,325.409C474.746,325.357 474.818,325.331 474.914,325.331L475.898,325.331C475.962,325.331 476.02,325.357 476.072,325.409C476.124,325.461 476.15,325.523 476.15,325.595C476.15,325.627 476.146,325.663 476.138,325.703L473.882,331.271C473.85,331.351 473.802,331.421 473.738,331.481C473.674,331.541 473.578,331.571 473.45,331.571L472.562,331.571Z" style="fill:rgb(92,74,50);fill-rule:nonzero;"/>
        <path d="M479.702,331.691C478.814,331.691 478.11,331.435 477.59,330.923C477.07,330.411 476.79,329.683 476.75,328.739C476.742,328.659 476.738,328.557 476.738,328.433C476.738,328.309 476.742,328.211 476.75,328.139C476.782,327.531 476.92,327.009 477.164,326.573C477.408,326.137 477.746,325.801 478.178,325.565C478.61,325.329 479.118,325.211 479.702,325.211C480.35,325.211 480.894,325.345 481.334,325.613C481.774,325.881 482.106,326.253 482.33,326.729C482.554,327.205 482.666,327.755 482.666,328.379L482.666,328.631C482.666,328.711 482.638,328.779 482.582,328.835C482.526,328.891 482.454,328.919 482.366,328.919L478.382,328.919L478.382,329.015C478.39,329.295 478.444,329.553 478.544,329.789C478.644,330.025 478.792,330.215 478.988,330.359C479.184,330.503 479.418,330.575 479.69,330.575C479.914,330.575 480.102,330.541 480.254,330.473C480.406,330.405 480.53,330.327 480.626,330.239C480.722,330.151 480.79,330.079 480.83,330.023C480.902,329.927 480.96,329.869 481.004,329.849C481.048,329.829 481.114,329.819 481.202,329.819L482.234,329.819C482.314,329.819 482.38,329.843 482.432,329.891C482.484,329.939 482.506,329.999 482.498,330.071C482.49,330.199 482.424,330.355 482.3,330.539C482.176,330.723 481.998,330.903 481.766,331.079C481.534,331.255 481.244,331.401 480.896,331.517C480.548,331.633 480.15,331.691 479.702,331.691ZM478.382,327.911L481.034,327.911L481.034,327.875C481.034,327.563 480.982,327.289 480.878,327.053C480.774,326.817 480.622,326.633 480.422,326.501C480.222,326.369 479.982,326.303 479.702,326.303C479.422,326.303 479.182,326.369 478.982,326.501C478.782,326.633 478.632,326.817 478.532,327.053C478.432,327.289 478.382,327.563 478.382,327.875L478.382,327.911Z" style="fill:rgb(92,74,50);fill-rule:nonzero;"/>
        <path d="M484.226,331.571C484.146,331.571 484.078,331.543 484.022,331.487C483.966,331.431 483.938,331.363 483.938,331.283L483.938,325.619C483.938,325.539 483.966,325.471 484.022,325.415C484.078,325.359 484.146,325.331 484.226,325.331L485.21,325.331C485.29,325.331 485.358,325.359 485.414,325.415C485.47,325.471 485.498,325.539 485.498,325.619L485.498,326.111C485.706,325.855 485.972,325.641 486.296,325.469C486.62,325.297 487.022,325.211 487.502,325.211C487.99,325.211 488.414,325.321 488.774,325.541C489.134,325.761 489.412,326.071 489.608,326.471C489.804,326.871 489.902,327.351 489.902,327.911L489.902,331.283C489.902,331.363 489.874,331.431 489.818,331.487C489.762,331.543 489.694,331.571 489.614,331.571L488.558,331.571C488.478,331.571 488.41,331.543 488.354,331.487C488.298,331.431 488.27,331.363 488.27,331.283L488.27,327.983C488.27,327.519 488.156,327.155 487.928,326.891C487.7,326.627 487.37,326.495 486.938,326.495C486.522,326.495 486.19,326.627 485.942,326.891C485.694,327.155 485.57,327.519 485.57,327.983L485.57,331.283C485.57,331.363 485.542,331.431 485.486,331.487C485.43,331.543 485.362,331.571 485.282,331.571L484.226,331.571Z" style="fill:rgb(92,74,50);fill-rule:nonzero;"/>
        <path d="M494.246,334.211C493.662,334.211 493.182,334.135 492.806,333.983C492.43,333.831 492.134,333.647 491.918,333.431C491.702,333.215 491.548,333.001 491.456,332.789C491.364,332.577 491.314,332.411 491.306,332.291C491.298,332.211 491.324,332.141 491.384,332.081C491.444,332.021 491.514,331.991 491.594,331.991L492.638,331.991C492.718,331.991 492.782,332.009 492.83,332.045C492.878,332.081 492.918,332.147 492.95,332.243C492.998,332.347 493.062,332.459 493.142,332.579C493.222,332.699 493.344,332.801 493.508,332.885C493.672,332.969 493.898,333.011 494.186,333.011C494.49,333.011 494.746,332.967 494.954,332.879C495.162,332.791 495.32,332.643 495.428,332.435C495.536,332.227 495.59,331.939 495.59,331.571L495.59,330.755C495.398,330.987 495.152,331.175 494.852,331.319C494.552,331.463 494.182,331.535 493.742,331.535C493.318,331.535 492.948,331.465 492.632,331.325C492.316,331.185 492.054,330.989 491.846,330.737C491.638,330.485 491.48,330.187 491.372,329.843C491.264,329.499 491.202,329.119 491.186,328.703C491.178,328.487 491.178,328.271 491.186,328.055C491.202,327.655 491.264,327.283 491.372,326.939C491.48,326.595 491.638,326.293 491.846,326.033C492.054,325.773 492.316,325.571 492.632,325.427C492.948,325.283 493.318,325.211 493.742,325.211C494.198,325.211 494.582,325.297 494.894,325.469C495.206,325.641 495.462,325.855 495.662,326.111L495.662,325.631C495.662,325.543 495.69,325.471 495.746,325.415C495.802,325.359 495.87,325.331 495.95,325.331L496.922,325.331C497.002,325.331 497.07,325.359 497.126,325.415C497.182,325.471 497.21,325.543 497.21,325.631L497.222,331.415C497.222,331.991 497.114,332.487 496.898,332.903C496.682,333.319 496.356,333.641 495.92,333.869C495.484,334.097 494.926,334.211 494.246,334.211ZM494.186,330.263C494.514,330.263 494.778,330.191 494.978,330.047C495.178,329.903 495.326,329.715 495.422,329.483C495.518,329.251 495.574,329.015 495.59,328.775C495.598,328.671 495.602,328.539 495.602,328.379C495.602,328.219 495.598,328.091 495.59,327.995C495.574,327.747 495.518,327.509 495.422,327.281C495.326,327.053 495.178,326.865 494.978,326.717C494.778,326.569 494.514,326.495 494.186,326.495C493.858,326.495 493.594,326.569 493.394,326.717C493.194,326.865 493.052,327.059 492.968,327.299C492.884,327.539 492.834,327.803 492.818,328.091C492.802,328.283 492.802,328.479 492.818,328.679C492.834,328.959 492.884,329.221 492.968,329.465C493.052,329.709 493.194,329.903 493.394,330.047C493.594,330.191 493.858,330.263 494.186,330.263Z" style="fill:rgb(92,74,50);fill-rule:nonzero;"/>
        <path d="M500.63,331.691C500.214,331.691 499.838,331.609 499.502,331.445C499.166,331.281 498.9,331.061 498.704,330.785C498.508,330.509 498.41,330.199 498.41,329.855C498.41,329.295 498.638,328.849 499.094,328.517C499.55,328.185 500.146,327.963 500.882,327.851L502.526,327.611L502.526,327.359C502.526,327.023 502.442,326.763 502.274,326.579C502.106,326.395 501.818,326.303 501.41,326.303C501.122,326.303 500.888,326.361 500.708,326.477C500.528,326.593 500.394,326.747 500.306,326.939C500.242,327.043 500.15,327.095 500.03,327.095L499.082,327.095C498.994,327.095 498.928,327.071 498.884,327.023C498.84,326.975 498.818,326.911 498.818,326.831C498.826,326.703 498.88,326.547 498.98,326.363C499.08,326.179 499.232,326.001 499.436,325.829C499.64,325.657 499.906,325.511 500.234,325.391C500.562,325.271 500.958,325.211 501.422,325.211C501.926,325.211 502.352,325.273 502.7,325.397C503.048,325.521 503.326,325.687 503.534,325.895C503.742,326.103 503.894,326.347 503.99,326.627C504.086,326.907 504.134,327.203 504.134,327.515L504.134,331.283C504.134,331.363 504.106,331.431 504.05,331.487C503.994,331.543 503.926,331.571 503.846,331.571L502.874,331.571C502.786,331.571 502.716,331.543 502.664,331.487C502.612,331.431 502.586,331.363 502.586,331.283L502.586,330.815C502.482,330.959 502.342,331.099 502.166,331.235C501.99,331.371 501.776,331.481 501.524,331.565C501.272,331.649 500.974,331.691 500.63,331.691ZM501.038,330.551C501.318,330.551 501.572,330.491 501.8,330.371C502.028,330.251 502.208,330.065 502.34,329.813C502.472,329.561 502.538,329.243 502.538,328.859L502.538,328.607L501.338,328.799C500.866,328.871 500.514,328.987 500.282,329.147C500.05,329.307 499.934,329.503 499.934,329.735C499.934,329.911 499.988,330.061 500.096,330.185C500.204,330.309 500.342,330.401 500.51,330.461C500.678,330.521 500.854,330.551 501.038,330.551Z" style="fill:rgb(92,74,50);fill-rule:nonzero;"/>
        <path d="M505.958,331.571C505.878,331.571 505.81,331.543 505.754,331.487C505.698,331.431 505.67,331.363 505.67,331.283L505.67,325.631C505.67,325.543 505.698,325.471 505.754,325.415C505.81,325.359 505.878,325.331 505.958,325.331L506.93,325.331C507.01,325.331 507.08,325.359 507.14,325.415C507.2,325.471 507.23,325.543 507.23,325.631L507.23,326.123C507.414,325.867 507.652,325.671 507.944,325.535C508.236,325.399 508.574,325.331 508.958,325.331L509.45,325.331C509.538,325.331 509.608,325.359 509.66,325.415C509.712,325.471 509.738,325.539 509.738,325.619L509.738,326.483C509.738,326.563 509.712,326.631 509.66,326.687C509.608,326.743 509.538,326.771 509.45,326.771L508.514,326.771C508.13,326.771 507.832,326.877 507.62,327.089C507.408,327.301 507.302,327.599 507.302,327.983L507.302,331.283C507.302,331.363 507.274,331.431 507.218,331.487C507.162,331.543 507.09,331.571 507.002,331.571L505.958,331.571Z" style="fill:rgb(92,74,50);fill-rule:nonzero;"/>
        <path d="M513.494,331.571C513.014,331.571 512.61,331.487 512.282,331.319C511.954,331.151 511.71,330.901 511.55,330.569C511.39,330.237 511.31,329.823 511.31,329.327L511.31,326.603L510.362,326.603C510.282,326.603 510.214,326.575 510.158,326.519C510.102,326.463 510.074,326.391 510.074,326.303L510.074,325.619C510.074,325.539 510.102,325.471 510.158,325.415C510.214,325.359 510.282,325.331 510.362,325.331L511.31,325.331L511.31,323.339C511.31,323.259 511.336,323.191 511.388,323.135C511.44,323.079 511.51,323.051 511.598,323.051L512.57,323.051C512.65,323.051 512.718,323.079 512.774,323.135C512.83,323.191 512.858,323.259 512.858,323.339L512.858,325.331L514.358,325.331C514.438,325.331 514.506,325.359 514.562,325.415C514.618,325.471 514.646,325.539 514.646,325.619L514.646,326.303C514.646,326.391 514.618,326.463 514.562,326.519C514.506,326.575 514.438,326.603 514.358,326.603L512.858,326.603L512.858,329.207C512.858,329.535 512.916,329.791 513.032,329.975C513.148,330.159 513.35,330.251 513.638,330.251L514.466,330.251C514.546,330.251 514.614,330.279 514.67,330.335C514.726,330.391 514.754,330.459 514.754,330.539L514.754,331.283C514.754,331.363 514.726,331.431 514.67,331.487C514.614,331.543 514.546,331.571 514.466,331.571L513.494,331.571Z" style="fill:rgb(92,74,50);fill-rule:nonzero;"/>
        <path d="M518.51,331.691C517.622,331.691 516.918,331.435 516.398,330.923C515.878,330.411 515.598,329.683 515.558,328.739C515.55,328.659 515.546,328.557 515.546,328.433C515.546,328.309 515.55,328.211 515.558,328.139C515.59,327.531 515.728,327.009 515.972,326.573C516.216,326.137 516.554,325.801 516.986,325.565C517.418,325.329 517.926,325.211 518.51,325.211C519.158,325.211 519.702,325.345 520.142,325.613C520.582,325.881 520.914,326.253 521.138,326.729C521.362,327.205 521.474,327.755 521.474,328.379L521.474,328.631C521.474,328.711 521.446,328.779 521.39,328.835C521.334,328.891 521.262,328.919 521.174,328.919L517.19,328.919L517.19,329.015C517.198,329.295 517.252,329.553 517.352,329.789C517.452,330.025 517.6,330.215 517.796,330.359C517.992,330.503 518.226,330.575 518.498,330.575C518.722,330.575 518.91,330.541 519.062,330.473C519.214,330.405 519.338,330.327 519.434,330.239C519.53,330.151 519.598,330.079 519.638,330.023C519.71,329.927 519.768,329.869 519.812,329.849C519.856,329.829 519.922,329.819 520.01,329.819L521.042,329.819C521.122,329.819 521.188,329.843 521.24,329.891C521.292,329.939 521.314,329.999 521.306,330.071C521.298,330.199 521.232,330.355 521.108,330.539C520.984,330.723 520.806,330.903 520.574,331.079C520.342,331.255 520.052,331.401 519.704,331.517C519.356,331.633 518.958,331.691 518.51,331.691ZM517.19,327.911L519.842,327.911L519.842,327.875C519.842,327.563 519.79,327.289 519.686,327.053C519.582,326.817 519.43,326.633 519.23,326.501C519.03,326.369 518.79,326.303 518.51,326.303C518.23,326.303 517.99,326.369 517.79,326.501C517.59,326.633 517.44,326.817 517.34,327.053C517.24,327.289 517.19,327.563 517.19,327.875L517.19,327.911Z" style="fill:rgb(92,74,50);fill-rule:nonzero;"/>
        <path d="M523.034,331.571C522.954,331.571 522.886,331.543 522.83,331.487C522.774,331.431 522.746,331.363 522.746,331.283L522.746,325.619C522.746,325.539 522.774,325.471 522.83,325.415C522.886,325.359 522.954,325.331 523.034,325.331L524.018,325.331C524.098,325.331 524.166,325.359 524.222,325.415C524.278,325.471 524.306,325.539 524.306,325.619L524.306,326.111C524.514,325.855 524.78,325.641 525.104,325.469C525.428,325.297 525.83,325.211 526.31,325.211C526.798,325.211 527.222,325.321 527.582,325.541C527.942,325.761 528.22,326.071 528.416,326.471C528.612,326.871 528.71,327.351 528.71,327.911L528.71,331.283C528.71,331.363 528.682,331.431 528.626,331.487C528.57,331.543 528.502,331.571 528.422,331.571L527.366,331.571C527.286,331.571 527.218,331.543 527.162,331.487C527.106,331.431 527.078,331.363 527.078,331.283L527.078,327.983C527.078,327.519 526.964,327.155 526.736,326.891C526.508,326.627 526.178,326.495 525.746,326.495C525.33,326.495 524.998,326.627 524.75,326.891C524.502,327.155 524.378,327.519 524.378,327.983L524.378,331.283C524.378,331.363 524.35,331.431 524.294,331.487C524.238,331.543 524.17,331.571 524.09,331.571L523.034,331.571Z" style="fill:rgb(92,74,50);fill-rule:nonzero;"/>
    </g>
    <g transform="matrix(-0.0475706,0.389406,-0.494145,-0.0603658,192.606,-135.801)">
        <ellipse cx="438.827" cy="224.694" rx="53.867" ry="21.523" style="fill:rgb(102,136,42);"/>
    </g>
    <g transform="matrix(-0.391082,0.0308988,-0.0392097,-0.496272,265.837,149.724)">
        <ellipse cx="438.827" cy="224.694" rx="53.867" ry="21.523" style="fill:rgb(102,136,42);"/>
    </g>
    <g transform="matrix(-0.365203,0.14327,-0.181806,-0.463433,285.548,88.3511)">
        <ellipse cx="438.827" cy="224.694" rx="53.867" ry="21.523" style="fill:rgb(155,182,115);"/>
    </g>
    <g transform="matrix(-0.116074,0.119668,-0.151855,-0.147294,278.348,30.5657)">
        <ellipse cx="438.827" cy="224.694" rx="53.867" ry="21.523" style="fill:rgb(155,182,115);"/>
    </g>
    <g transform="matrix(-0.24084,0.309671,-0.392964,-0.305619,262.27,-42.4498)">
        <ellipse cx="438.827" cy="224.694" rx="53.867" ry="21.523" style="fill:rgb(155,182,115);"/>
    </g>
    <g transform="matrix(0.268753,0.285782,-0.36265,0.341041,-4.59283,-164.752)">
        <ellipse cx="438.827" cy="224.694" rx="53.867" ry="21.523" style="fill:rgb(155,182,115);"/>
    </g>
    <g transform="matrix(0.352103,0.172983,-0.21951,0.44681,-76.6394,-134.542)">
        <ellipse cx="438.827" cy="224.694" rx="53.867" ry="21.523" style="fill:rgb(102,136,42);"/>
    </g>
    <g transform="matrix(0.697776,-0.624009,0.624009,0.697776,-390.421,127.406)">
        <path d="M366.849,299.923C366.849,299.923 359.208,272.85 383.27,268.723C389.094,267.724 395.493,267.536 399.669,266.035C408.721,262.783 413.291,257.316 413.02,255.642C412.8,254.278 412.707,254.381 411.796,254.053C410.221,253.486 407.304,256.778 403.638,258.606C396.312,262.258 385.917,260.592 380.109,260.928C359.141,262.144 353.001,270.962 350.794,292.258C348.901,310.527 363.832,305.827 366.538,302.058C367.154,301.201 366.849,299.923 366.849,299.923Z" style="fill:rgb(92,74,50);"/>
    </g>
    <g transform="matrix(0.936097,0,0,0.936097,-327.846,-182.899)">
        <path d="M391.156,282.534C391.156,282.534 403.576,270.589 418.995,276.298C432.234,281.199 433.349,274.175 436.803,271.582C437.987,270.693 438.951,269.807 440.028,270.478C441.098,271.145 440.637,272.535 436.141,277.993C427.079,288.995 417.527,278.778 409.442,280.587C404.857,281.612 398.938,282.504 396.218,291.112C395.565,293.18 394.209,296.579 396.167,300.081C397.205,301.938 390.562,290.048 390.562,290.048L391.156,282.534Z" style="fill:rgb(92,74,50);"/>
    </g>
    <g transform="matrix(-0.875551,-0.331194,-0.331194,0.875551,476.56,-14.5284)">
        <path d="M394.354,278.612C394.354,278.612 395.185,278.768 397.424,277.744C401.986,275.658 409.858,273.027 419.092,276.294C432.401,281.002 434.98,270.737 439.159,269.646C440.537,269.286 441.068,269.643 441.362,270.912C441.757,272.618 439.809,275.843 435.54,280.462C425.864,290.93 408.711,279.665 402.486,285.133C390.221,295.905 391.554,287.481 391.554,287.481L394.354,278.612Z" style="fill:rgb(92,74,50);"/>
    </g>
</svg>
